# xmcd CD database file
#
# Track frame offsets:
#	150
#	12015
#	26080
#	48292
#	62062
#
# Disc length: 1021 seconds
#
# Revision: 0
# Processed by: cddbd v1.5.2PL0 Copyright (c) Steve Scherf et al.
# Submitted via: CDex 1.51
#
DISCID=3503fb05
DTITLE=Philip Gibbs - Diggin In The Bottom Of Mines
DYEAR=1900
DGENRE=Country
TTITLE0=Let It Rain
TTITLE1=Front Door Bound
TTITLE2=Speeding Blues
TTITLE3=A North Wind Blowin'
TTITLE4=Alchemy
EXTD=
EXTT0=
EXTT1=
EXTT2=
EXTT3=
EXTT4=
PLAYORDER=
